<svg width="10" height="10" viewBox="0 0 10 10" fill="none" xmlns="http://www.w3.org/2000/svg">
<path d="M1.11077 1.11091C0.915505 1.30618 0.915505 1.62276 1.11077 1.81802L4.29275 5L1.11077 8.18198C0.915504 8.37724 0.915504 8.69382 1.11077 8.88909C1.30603 9.08435 1.62261 9.08435 1.81787 8.88909L4.99985 5.70711L8.18183 8.88909C8.3771 9.08435 8.69368 9.08435 8.88894 8.88909C9.0842 8.69382 9.0842 8.37724 8.88894 8.18198L5.70696 5L8.88894 1.81802C9.0842 1.62276 9.0842 1.30618 8.88894 1.11091C8.69368 0.91565 8.3771 0.915651 8.18183 1.11091L4.99985 4.29289L1.81787 1.11091C1.62261 0.915651 1.30603 0.91565 1.11077 1.11091Z" fill="#293553"/>
</svg>
